<?xml version="1.0" standalone="no"?>
<!DOCTYPE svg PUBLIC "-//W3C//DTD SVG 20010904//EN"
 "http://www.w3.org/TR/2001/REC-SVG-20010904/DTD/svg10.dtd">
<svg version="1.0" xmlns="http://www.w3.org/2000/svg"
 width="1388.000000pt" height="1388.000000pt" viewBox="0 0 1388.000000 1388.000000"
 preserveAspectRatio="xMidYMid meet">
<metadata>
Created by potrace 1.11, written by Peter Selinger 2001-2013
</metadata>
<g transform="translate(0.000000,1388.000000) scale(0.100000,-0.100000)"
fill="#000000" stroke="none">
<path d="M5456 13843 c-8 -8 -63 -41 -146 -88 -25 -14 -63 -36 -85 -50 -22
-13 -53 -32 -70 -41 -16 -9 -63 -37 -104 -62 -41 -24 -95 -56 -120 -70 -25
-14 -48 -28 -51 -31 -3 -3 -18 -13 -35 -21 -16 -8 -80 -45 -142 -82 -62 -38
-115 -68 -117 -68 -3 0 -21 -11 -41 -25 -21 -13 -86 -53 -147 -87 -60 -35
-121 -71 -136 -80 -15 -10 -49 -29 -76 -44 -27 -14 -56 -32 -64 -40 -7 -8 -18
-12 -23 -9 -5 4 -9 1 -9 -5 0 -6 -11 -15 -24 -20 -14 -5 -60 -31 -103 -58 -43
-26 -85 -51 -93 -55 -8 -4 -32 -17 -52 -29 -21 -13 -129 -77 -240 -142 -112
-66 -210 -125 -218 -132 -8 -7 -17 -12 -20 -11 -5 1 -22 -9 -87 -50 -16 -10
-31 -16 -35 -15 -5 1 -8 -2 -8 -7 0 -5 -10 -13 -22 -17 -12 -3 -26 -11 -32
-16 -19 -16 -128 -78 -137 -78 -5 0 -9 -4 -9 -10 0 -5 -5 -10 -10 -10 -6 0
-43 -20 -83 -44 -39 -24 -85 -51 -102 -60 -16 -9 -43 -25 -60 -36 -16 -11 -37
-23 -45 -27 -8 -4 -52 -29 -97 -56 l-83 -49 0 -5184 c0 -4232 2 -5182 13
-5178 10 4 802 -461 842 -494 6 -5 15 -11 21 -13 5 -2 47 -26 92 -54 45 -27
90 -54 100 -60 30 -17 282 -169 320 -193 20 -13 45 -25 55 -29 9 -3 17 -9 17
-14 0 -5 4 -9 10 -9 5 0 38 -18 72 -40 35 -22 68 -40 75 -40 7 0 16 -6 20 -12
7 -12 45 -35 100 -62 13 -6 23 -14 23 -18 0 -5 4 -8 9 -8 5 0 117 -65 250
-145 132 -80 245 -145 250 -145 5 0 11 -3 13 -8 2 -4 86 -57 188 -117 102 -60
187 -113 188 -117 2 -5 8 -8 13 -8 5 0 38 -18 73 -40 35 -22 68 -40 75 -40 6
0 11 -3 11 -7 0 -5 10 -13 23 -19 12 -6 38 -21 58 -33 l37 -22 1 158 c0 87 1
167 1 178 0 11 0 49 0 85 0 36 0 70 0 75 -5 307 -4 443 3 453 5 6 6 12 1 12
-7 0 -10 123 -4 140 1 3 1 10 0 15 -8 30 -4 1722 3 1733 5 6 6 12 1 12 -11 0
-12 180 -1 197 4 6 4 14 0 16 -6 4 -9 296 -4 367 1 8 11 20 24 25 46 22 112
60 115 68 2 4 10 7 17 7 8 0 20 6 27 13 8 6 29 20 48 30 72 39 95 52 108 64 7
7 17 13 22 13 6 0 85 44 160 90 8 5 49 28 90 51 41 23 77 45 80 48 3 4 21 14
40 23 19 9 52 28 73 42 21 14 40 26 42 26 3 0 50 27 106 60 55 33 103 60 105
60 2 0 23 12 45 26 36 22 85 50 154 88 11 6 22 14 25 17 3 3 32 20 65 39 33
18 200 114 370 213 171 99 326 189 345 200 92 51 125 72 128 79 2 4 7 8 12 8
4 0 77 40 162 89 84 48 214 123 288 166 74 43 172 99 216 126 45 27 87 49 93
49 6 0 11 4 11 8 0 4 26 21 58 37 31 16 59 31 62 34 5 6 32 21 100 58 19 10
40 23 46 29 7 6 26 17 43 24 17 7 31 16 31 21 0 5 6 9 14 9 8 0 21 7 30 15 8
9 17 15 18 13 3 -2 39 18 220 124 64 37 121 68 127 68 6 0 11 4 11 8 0 4 19
18 43 30 23 12 49 26 57 32 8 5 44 27 80 47 36 21 83 48 105 61 22 12 48 25
58 29 9 3 17 9 17 14 0 5 4 9 9 9 5 0 45 21 88 46 140 84 178 105 196 111 9 3
17 9 17 14 0 5 6 9 13 9 7 0 36 16 65 35 28 20 52 32 52 28 0 -5 4 -3 8 2 4 6
17 16 30 23 56 31 67 38 80 50 7 7 18 10 23 7 5 -4 9 -1 9 4 0 6 7 11 15 11 8
0 15 5 15 10 0 6 4 10 9 10 5 0 54 26 108 58 54 32 105 61 113 65 8 4 24 13
35 20 11 7 47 27 80 46 33 19 63 39 66 44 3 5 8 8 10 7 8 -4 59 24 59 32 0 4
5 8 11 8 6 0 39 17 73 37 33 21 63 38 66 38 3 0 24 13 48 28 24 15 55 33 70
40 15 6 29 14 32 18 6 7 218 129 225 129 3 0 11 5 18 11 7 5 41 27 77 47 l65
38 3 1721 2 1722 -44 31 c-25 16 -49 30 -55 30 -6 0 -11 4 -11 9 0 5 -8 11
-17 14 -10 4 -34 16 -55 29 -20 13 -81 49 -135 81 -54 32 -160 96 -237 142
-76 47 -142 85 -147 85 -5 0 -9 3 -9 8 0 4 -15 13 -32 21 -18 8 -35 17 -38 21
-7 9 -403 244 -417 248 -7 2 -13 8 -13 13 0 5 -4 9 -9 9 -7 0 -315 181 -406
239 -79 50 -432 259 -447 264 -10 4 -18 11 -18 17 0 5 -5 10 -11 10 -6 0 -89
47 -184 105 -95 58 -178 105 -183 105 -6 0 -12 3 -14 8 -1 4 -48 34 -103 67
-55 32 -102 62 -105 65 -3 3 -14 10 -26 15 -11 6 -237 141 -502 300 -265 160
-501 301 -525 315 -23 14 -136 81 -250 150 -114 69 -215 130 -225 135 -88 49
-468 281 -470 287 -2 5 -8 8 -13 8 -5 0 -73 38 -150 85 -78 47 -143 85 -145
85 -3 0 -10 5 -17 11 -13 11 -682 415 -707 426 -8 4 -50 29 -92 55 -85 53 -82
51 -92 41z m94 -3520 c8 -3 29 -17 46 -30 17 -13 38 -23 47 -23 10 0 17 -4 17
-9 0 -5 21 -20 48 -33 26 -13 52 -30 59 -38 7 -8 13 -11 13 -7 0 4 19 -5 43
-21 46 -31 289 -176 297 -177 3 0 32 -18 65 -38 122 -77 530 -317 537 -317 4
0 8 -3 8 -8 0 -4 15 -13 33 -21 17 -8 46 -24 64 -37 17 -13 35 -24 38 -24 4 0
20 -9 36 -21 16 -11 29 -17 29 -12 0 4 5 0 11 -9 5 -10 14 -18 19 -18 6 0 73
-38 151 -85 78 -47 145 -85 150 -85 5 0 9 -3 9 -8 0 -4 15 -13 33 -21 17 -8
34 -17 37 -21 3 -3 32 -21 65 -40 33 -19 63 -38 67 -44 4 -6 8 -7 8 -3 0 4 15
-3 33 -16 17 -14 42 -28 55 -32 12 -3 22 -11 22 -16 0 -5 3 -8 8 -7 4 1 25 -9
47 -23 22 -13 49 -30 60 -36 11 -7 52 -31 90 -54 39 -24 81 -49 95 -57 14 -7
39 -22 55 -32 17 -11 37 -23 45 -27 13 -6 40 -22 135 -80 109 -66 174 -103
182 -103 6 0 13 -7 17 -15 3 -8 9 -14 13 -13 9 3 93 -50 93 -58 0 -3 -4 -3 -9
0 -5 3 -14 -1 -21 -9 -7 -8 -16 -12 -21 -9 -5 3 -9 0 -9 -6 0 -6 -10 -14 -22
-19 -13 -5 -59 -30 -103 -56 -44 -26 -96 -57 -115 -68 -19 -10 -66 -38 -105
-60 -38 -23 -82 -48 -97 -57 -60 -34 -194 -111 -208 -120 -76 -48 -170 -100
-179 -100 -6 0 -11 -4 -11 -10 0 -5 -4 -10 -9 -10 -14 0 -134 -71 -143 -84 -4
-6 -8 -7 -8 -2 0 5 -6 4 -12 -2 -11 -9 -112 -68 -226 -134 -18 -10 -102 -58
-185 -107 -84 -48 -165 -96 -182 -105 -16 -9 -48 -28 -70 -41 -22 -13 -52 -29
-67 -36 -16 -6 -28 -15 -28 -20 0 -5 -5 -9 -11 -9 -6 0 -24 -9 -40 -21 -16
-11 -29 -18 -29 -14 0 3 -10 -3 -22 -14 -11 -11 -25 -18 -30 -15 -4 3 -8 1 -8
-4 0 -5 -8 -12 -17 -15 -10 -4 -36 -18 -58 -31 -22 -14 -47 -29 -55 -33 -52
-26 -206 -118 -212 -127 -4 -6 -8 -7 -8 -2 0 5 -7 3 -15 -4 -17 -14 -67 -44
-105 -62 -14 -7 -27 -15 -30 -18 -3 -3 -25 -16 -50 -29 -25 -13 -52 -30 -61
-37 -8 -8 -19 -14 -22 -14 -4 0 -44 -22 -90 -50 -46 -27 -89 -50 -95 -50 -7 0
-12 -3 -12 -8 0 -4 -17 -16 -37 -27 -21 -10 -49 -26 -63 -35 -14 -9 -32 -19
-40 -22 -14 -5 -16 180 -16 1727 l-1 1733 31 -19 c17 -10 38 -22 46 -26z"/>
</g>
</svg>
